<svg xmlns="http://www.w3.org/2000/svg" xml:space="preserve" fill-rule="evenodd" stroke-linejoin="round" stroke-miterlimit="2" clip-rule="evenodd" version="1.1" viewBox="0 0 2832 899"><g><path d="M.033 0h2831.213v898.008H.033z" fill="none"/><path d="m816.257 232.433.116-46.871h1.719c4.328 0 15.13 11.555 19.008 15.227l-2.365-16.74h-64.159l-2.374 16.74c3.888-3.672 15.985-15.227 20.301-15.227h1.835v57.455c0 7.56.334 10.152-2.806 16.848h31.54c-2.815-6.696-2.815-9.288-2.815-16.848v-10.584Zm48.93 27.432h31.529c-2.803-6.696-2.803-9.288-2.803-16.848v-21.384h20.521v21.384c0 7.56.322 10.152-2.806 16.848h31.528c-2.803-6.696-2.803-9.288-2.803-16.848v-42.12c0-7.56 0-10.153 2.806-16.848h-31.528c3.125 6.695 2.803 9.288 2.803 16.848v18.9h-20.521v-18.9c0-7.56 0-10.153 2.806-16.848H865.19c3.124 6.695 2.803 9.288 2.803 16.848v42.12c0 7.56.321 10.152-2.806 16.848Zm138.016-1.512v-35.532h2.491c7.564 0 12.097 3.888 16.842 9.612v-20.952c-4.745 5.724-9.278 9.504-16.839 9.504h-2.49v-34.886c7.453.865 15.127 3.997 22.466 14.473l8.324-16.524h-59.522c3.128 6.695 2.806 9.288 2.806 16.848v42.12c0 7.56.322 10.152-2.806 16.848h58.973l-5.297-17.713c-2.806 6.913-9.496 15.553-24.95 16.201ZM811.711 713.951c9.184 0 18.358-2.267 26.243-7.02l-6.904-25.487c-5.297 16.74-15.014 28.296-23.33 28.296-9.72 0-14.475-15.336-14.475-31.969 0-19.872 6.59-41.58 19.008-41.58 8.203 0 15.877 16.849 18.037 33.697l10.801-24.84c-8.54-7.56-19.008-11.016-29.485-11.016-22.781 0-45.251 16.2-45.251 40.391 0 25.38 22.574 39.528 45.356 39.528Zm95.9 0c27.871 0 43.856-18.9 43.856-38.772 0-19.979-15.985-40.715-43.856-40.715-27.857 0-43.842 20.736-43.842 40.715 0 19.872 15.985 38.772 43.842 38.772Zm0-1.62c-8.85 0-13.282-18.467-13.282-37.8 0-19.224 4.433-38.447 13.282-38.447 8.866 0 13.283 19.223 13.283 38.448 0 19.223-4.417 37.8-13.283 37.8Zm165.136-59.075c0-7.56 0-10.153 2.806-16.849h-28.725l-18.79 52.488-15.335-40.93c-2.481-6.59-4.537-11.558-9.175-11.558h-24.087c1.397 1.945 2.806 6.265 4.42 10.801v37.368c0 8.1-4.316 19.763-10.789 27.648h23.542c-6.485-7.885-10.918-19.548-10.918-27.648v-32.508l23.015 60.156h23.646c-3.569-7.885-3.673-19.548-.75-27.648l15.221-42.985v53.785c0 7.56.322 10.152-2.806 16.848h31.528c-2.803-6.696-2.803-9.288-2.803-16.848v-42.12Zm33.054 58.968h31.528c-2.806-6.696-2.806-9.288-2.806-16.848v-5.292c19.875 1.512 43.316-5.94 43.316-28.944 0-12.744-8.324-24.516-26.465-24.733h-45.573c3.127 6.696 2.806 9.288 2.806 16.849v42.12c0 7.56.321 10.152-2.806 16.848Zm28.722-24.409v-49.679h5.079c7.34-.108 11.01 9.828 11.01 20.952 0 13.284-5.389 28.187-16.086 28.727Zm54.104 24.409h23.555c-4.212-7.885-5.193-19.548-2.7-27.648l1.19-4.104h25.584l4.975 14.904c2.482 7.56 3.67 10.152 2.806 16.848h31.537c-5.076-6.696-5.943-9.288-8.424-16.848l-13.929-42.12c-2.49-7.56-3.348-10.153-2.815-16.849h-31.528l2.157 2.81-13.4 45.359c-2.48 8.1-10.246 19.763-19.008 27.648Zm22.574-33.588 11.126-37.476c2.377 3.672 3.137 6.588 4.972 12.096l8.428 25.38H1211.2Zm144.94-42.229c6.475 7.885 10.908 19.549 10.908 27.648v11.449l-39.53-39.097h-28.721c5.18 4.213 9.174 9.288 9.174 15.877v32.292c0 8.1-4.319 19.763-10.804 27.648h23.554c-6.485-7.885-10.918-19.548-10.918-27.648v-30.457l57.68 58.104h1.397v-48.169c0-8.099 4.328-19.763 10.801-27.648h-23.542Zm69.981 75.817h31.54c-2.815-6.696-2.815-9.288-2.815-16.848v-10.584l7.56-20.737c3.037-8.099 11.666-19.763 20.957-27.648h-23.542c3.566 7.885 3.774 19.549.75 27.648l-6.693 18.469-13.282-29.268c-3.453-7.56-4.433-10.153-4.537-16.849h-31.528c6.047 6.696 6.798 9.288 10.143 16.849l14.25 32.723v9.397c0 7.56.325 10.152-2.803 16.848ZM771.216 542.228h51.813c-7.018-16.735-7.018-23.214-7.018-42.105v-53.444h78.29v53.443c0 18.891.8 25.37-7.022 42.105h51.816c-7.021-16.735-7.021-23.214-7.021-42.105V394.856c0-18.892 0-25.37 7.021-42.106H887.28c7.822 16.735 7.022 23.214 7.022 42.106v47.236h-78.293v-47.236c0-18.892 0-25.37 7.018-42.106h-51.81c7.82 16.735 7.022 23.214 7.022 42.106v105.267c0 18.891.8 25.37-7.022 42.105Zm289.075 4.319c69.083 0 105.816-48.854 105.816-98.519 0-49.662-36.73-100.136-105.816-100.136-69.087 0-105.817 50.474-105.817 100.136 0 49.665 36.73 98.519 105.817 98.519Zm0-4.05c-41.563 0-62.091-46.154-62.091-94.469 0-48.042 20.525-96.086 62.09-96.086 41.564 0 62.36 48.044 62.36 96.086 0 48.315-20.796 94.47-62.362 94.47Zm116.602-.27h51.812c-7.02-16.734-7.02-23.213-7.02-42.104v-54.254h28.882c56.434 0 27.817 95.55 69.644 95.82l29.154.539c-6.753-5.128-10.518-15.384-13.778-25.913-6.456-21.05-10.782-72.875-55.867-72.875v-.81c31.578-2.159 47.248-23.213 47.248-43.994 0-22.942-18.365-45.886-54.269-45.886h-95.806c7.819 16.735 7.018 23.214 7.018 42.106v105.267c0 18.891.8 25.37-7.018 42.105Zm44.791-100.947v-84.75h23.223c32.115 0 47.223 20.512 47.223 41.297 0 21.59-16.174 43.183-45.593 43.183l-24.853.27Zm226.18-84.75h16.205c10.814 0 39.693 28.881 49.385 38.056l-5.927-41.836h-160.325l-5.927 41.836c9.717-9.175 39.936-38.056 50.719-38.056h17.832v143.593c0 18.891.8 25.37-7.018 42.105h51.812c-7.021-16.735-7.021-23.214-7.021-42.105v-33.47l.268-110.123Zm78.03 185.698h51.814c-7.022-16.735-7.022-23.214-7.022-42.105V394.856c0-18.892 0-25.37 7.022-42.106h-51.813c7.819 16.735 7.021 23.214 7.021 42.106v105.267c0 18.891.8 25.37-7.021 42.105Zm172.473 4.319c22.93 0 45.86-5.67 65.587-17.546l-11.88-43.723c-13.774 33.467-38.33 52.9-61.554 52.9-31.85 0-58.837-33.47-58.837-85.022 0-58.84 29.15-100.675 64.253-100.675 23.734 0 46.958 25.643 58.276 62.078l17.296-39.676c-23.488-18.895-50.21-27.53-75.865-27.53-61.261 0-102.56 45.885-102.56 99.327 0 55.06 42.125 99.867 105.284 99.867Zm158.165-.542c32.38 0 63.692-20.782 63.692-63.156v-61.272c0-20.243 6.754-49.123 21.061-68.827h-46.715c14.576 19.704 21.06 48.584 21.06 68.827v62.35c0 35.63-22.661 52.903-45.352 52.903-23.198 0-46.69-18.085-46.69-52.633v-89.341c0-18.892 0-25.37 7.022-42.106h-51.812c7.818 16.735 7.02 23.214 7.02 42.106v80.975c0 46.424 36.144 70.174 70.714 70.174Zm93.376-3.777h136.036l9.184-41.566c-16.474 14.575-47.251 36.438-71.543 36.438h-28.857V394.856c0-18.892 0-25.37 6.996-42.106h-51.816c7.822 16.735 7.021 23.214 7.021 42.106v105.267c0 18.891.8 25.37-7.021 42.105Zm212.701-185.698h16.177c10.814 0 39.694 28.881 49.41 38.056l-5.952-41.836H2061.92l-5.927 41.836c9.717-9.175 39.936-38.056 50.747-38.056h17.804v143.593c0 18.891.8 25.37-7.021 42.105h51.815c-6.996-16.735-6.996-23.214-6.996-42.105v-33.47l.268-110.123Zm154.108 189.475c32.379 0 63.692-20.782 63.692-63.156v-61.272c0-20.243 6.753-49.123 21.06-68.827h-46.686c14.576 19.704 21.036 48.584 21.036 68.827v62.35c0 35.63-22.666 52.903-45.328 52.903-23.223 0-46.69-18.085-46.69-52.633v-89.341c0-18.892 0-25.37 6.994-42.106h-51.813c7.819 16.735 7.021 23.214 7.021 42.106v80.975c0 46.424 36.172 70.174 70.714 70.174Zm93.404-3.777h51.812c-7.02-16.735-7.02-23.214-7.02-42.105v-54.254h28.885c56.403 0 27.788 95.55 69.62 95.82l29.147.539c-6.725-5.128-10.515-15.384-13.746-25.913-6.486-21.05-10.814-72.875-55.87-72.875v-.81c31.578-2.159 47.222-23.213 47.222-43.994 0-22.942-18.34-45.886-54.244-45.886h-95.806c7.819 16.735 6.993 23.214 6.993 42.106v105.267c0 18.891.829 25.37-6.993 42.105Zm44.791-100.948v-84.75h23.227c32.11 0 47.222 20.512 47.222 41.297 0 21.59-16.205 43.183-45.62 43.183l-24.829.27Zm197.565 97.168h-14.307v-88.8h24.853c18.873 0 30.22 7.558 42.096 21.055v-46.697c-11.876 13.497-23.223 21.054-42.096 21.054h-24.853v-87.99l5.42.27c21.035 0 48.023 3.507 72.583 29.958l17.564-34.548h-140.361c7.822 16.735 7.02 23.214 7.02 42.106v105.267c0 18.891.802 25.37-7.017 42.105h138.996l-10.783-35.899c-12.44 15.384-34.009 32.119-69.115 32.119Z" fill-rule="nonzero"/><g transform="matrix(3.13221 0 0 .99348 -1153.338 -6.591)"><path d="M434.638 848.932s-10.273-15.578-15.171-28.823c-7.857-21.242-14.561-56.56-15.248-76.361-.691-19.925.184-39.99 1-54.286.656-11.518 3.528-34.796 6.403-47.227 2.89-12.492 5.524-18.103 5.524-18.103s-3.06 27.869-3.198 49.473c-.048 7.63 1.098 26.523 4.704 43.55 1.887 8.913 2.552 21.415 2.512 27.748l-.161 25.564s-1.264 8.088 0 0c.612-3.918 3.452-26.821 3.18-44.022-.254-16.162-3.857-37.197-4.437-43.351-.933-9.899-2.436-37.258.043-56.318 1.02-7.845 0 0 0 0s7.727 11.449 12.49 23.767c4.945 12.794 7.377 39.89 8.042 61.835.343 11.358-.022 36.392-1.257 50.172-1.255 13.994-4.964 27.796-6.3 42.195-1.352 14.569 1.874 44.187 1.874 44.187Z" fill="#005501"/><circle fill="#d46700" cx="599.213" cy="301.4" r="12.012" transform="matrix(1.03401 -.76122 .24144 3.26 -297.061 52.82)"/><circle fill="#693300" cx="599.213" cy="301.4" r="12.012" transform="matrix(.4554 -.33526 .10634 1.43578 93.352 570.959)"/><path d="M571.062 274.651s1.226 30.894.623 48.864c-.628 18.664-4.53 46.76-7.773 60.763-2.97 12.827-7.55 22.334-11.693 28.249-3.337 4.765-8.288 8.449-11.352 8.893-2.146.31-5.168.75-5.168.75l6.872-13.037c3.073-5.83 6.687-20.436 12.051-38.477 1.492-5.016 7.167-22.469 7.167-22.469l-14.103 30.385c-2.388 5.145-6.45 25.567-15.481 39.802-2.729 4.301 0 0 0 0s-2.984-11.302-4.4-19.988c-2.993-18.352-.976-35.249.618-41.295 4.638-17.605 12.868-22.313 17.305-26.91 4.507-4.67 15.777-12.675 19.408-27.663 2.88-11.891 5.926-27.867 5.926-27.867Z" fill="#008b10"/><path d="M576.554 684.314s-8.883 26.873-14.282 35.625c-5.608 9.09-14.281 18.817-20.181 20.505-5.404 1.55-11.854-4.363-16.038-8.778-3.371-3.557-7.48-11.491-9.476-16.917-1.396-3.797-2.904-14.845-2.904-14.845s7.306 4.465 10.448 6.69c3.508 2.485 8.497 4.49 14.84-.03 2.292-1.633 11.284-11.68 11.284-11.68s2.302 5.05 0 0c-1.932-4.237-12.81-.045-17.249 2.465-3.019 1.707-15.258-5.134-20.726-22.909-1.867-6.067 0 0 0 0s3.908-15.58 6.536-20.688c3.102-6.033 8.773-12.462 12.076-15.506 2.493-2.298 5.17-3.917 7.742-2.763 3.39 1.521 8.604 6.204 12.6 11.89 4.059 5.773 7.58 16.671 11.752 22.756 4.221 6.157 13.578 14.185 13.578 14.185Z" fill="#005501"/><path d="M541.178 442.425s-9.593 26.027-14.93 36.292c-6.044 11.626-12.491 22.875-20.023 29.25-8.14 6.891-12.934-12.788-19.93-16.445-10.947-5.721-26.408 15.09-30.454 27.905-14.051 44.497-12.614 105.204-12.614 105.204s11.647-35.673 25.172-42.907c17.482-9.348 33.718-1.892 33.718-1.892s-26.353 13.697-35.463 22.706c-13.213 13.069-17.197 40.042-17.197 40.042s-.518 8.441 5.175 31.143c8.439 33.646 28.455 26.137 34.243 23.089 11.245-5.921 22.185-37.268 29.087-67.958 6.902-30.687 9.967-80.04 13.836-111.11l9.38-75.319Z" fill="#79db15"/><path d="M473.652 18.888s-.279 48.75 0 64.185c.541 29.971-.62 46.98-2.206 63.719-1.61 16.983-6.336 41.14-9.048 46.18-9.418 17.501-22.945 11.127-22.945 11.127s4.745-9.277 9.716-25.99c4.561-15.336 4.586-23.172 5.611-45.677.898-19.71 5.619-28.957 5.619-28.957s-4.203 9.192-7.043 21.847c-3.994 17.795-3.53 27.654-6.66 44.186-4.132 21.814-8.663 21.455-8.663 21.455s-2.475-51.178 1.787-77.23c2.8-17.112 6.556-25.27 12.647-32.805 6.09-7.535 11.018-9.202 14.158-23.974 2.521-11.862 7.027-38.066 7.027-38.066Z" fill="#008b10"/><path d="M524.642 129.878s3.871 42.146 4.305 60.452c.689 29.12.866 84.896-.172 114.275-.84 23.82-3.101 44.139-6.051 61.993-3.113 18.838-7.088 39.054-12.623 51.036-5.535 11.984-13.384 16.62-20.588 20.865-7.035 4.146-15.678.067-22.633 4.61-7.388 4.83-21.694 24.357-21.694 24.357s4.882-11.2 7.952-16.863c10.717-19.786 12.634-49.824 18.346-67.7 4.165-13.035 18.201-34.64 23.523-40.066 11.96-12.192 14.328-43.473 15.094-50.136 1.03-8.94 1.338-20.179 1.338-20.179l-3.07 15.322c-1.772 8.842-5.353 19.792-12.559 32.776-4.571 8.236-13.767 23.777-24.327 35.512-15.836 17.598-13.256 65.897-28.782 111.006-1.348 3.92 0 0 0 0s-4.219-26.36-5.248-38.334c-1.34-15.595-2.893-38.952-2.79-55.226.145-22.686.348-59.87 3.658-80.876 3.413-21.671 10.592-37.582 16.824-49.148 5.894-10.936 13.828-12.99 20.575-20.244 7.553-8.117 17.817-17.368 24.74-28.465 6.258-10.027 12.776-27.273 16.805-38.103 2.83-7.599 7.377-26.864 7.377-26.864Z" fill="#005501"/><path d="M405.498 78.155s9.176 23.435 12.621 38.283c3.508 15.118 10.01 55.5 10.702 94.192.344 19.232-1 52.294-2.462 71.084-1.688 21.71-3.792 54.716-4.047 76.939-.456 39.805 4.88 87.393 6.509 109.266 1.25 16.78-2.275 42.076-2.275 42.076s-3.12-22.41-4.144-29.913c-3.626-26.56-8.922-36.43-12.999-55.764-6.136-29.1-8.438-66.09-7.425-95.767.431-12.617 2.951-38.455 3.52-53.217.606-15.714 0 0 0 0s-5.45 24.8-8.23 44.25c-7.56 52.857-2.246 85.95 3.99 111.95 7.034 29.332 13.591 45.646 16.861 59.281 4.49 18.722 4.283 28.889 4.283 28.889s-7.786 7.945-11.18 3.015c-4.546-6.603-11.145-27.007-16.095-42.637-5.537-17.485-10.26-39.484-14.274-62.275-3.987-22.632-6.314-50.72-6.958-74.466-.619-22.813.401-46.723 3.092-68.007 2.796-22.119 9.312-42.75 13.682-64.703 4.456-22.379 7.25-47.49 10.197-69.57 2.65-19.85 4.632-62.906 4.632-62.906Z" fill="#008b10"/><circle fill="#d46700" cx="599.213" cy="301.4" r="12.012" transform="matrix(.37752 0 0 1.19023 202.79 -246.282)"/><circle fill="#693300" cx="599.213" cy="301.4" r="12.012" transform="matrix(.74903 0 0 2.36151 40.52 -564.484)"/><circle fill="#693300" cx="599.213" cy="301.4" r="12.012" transform="matrix(.73128 0 0 2.30556 67.093 53.434)"/><circle fill="#693300" cx="599.213" cy="301.4" r="12.012" transform="matrix(.52734 0 0 1.66258 238.484 21.954)"/><circle fill="#d46700" cx="599.213" cy="301.4" r="12.012" transform="matrix(.43991 0 0 1.38695 237.241 47.769)"/><circle fill="#693300" cx="599.213" cy="301.4" r="12.012" transform="matrix(.58698 0 0 1.8506 76.856 24.611)"/><circle fill="#d46700" cx="599.213" cy="301.4" r="12.012" transform="matrix(.31856 0 0 1.00434 250.294 566.36)"/><path d="M499.346 891.59s-8.356 5.842-11.779 6.33c-5.445.773-15.685.376-20.892-1.69-4.221-1.674-7.567-5.64-10.348-10.706-2.934-5.347-5.977-12.127-7.256-21.37-1.278-9.242-.829-22.198-.415-34.087.404-11.61 2.58-25.763 2.898-37.245.338-12.2-.871-35.948-.871-35.948s1.243 8.16 1.772 13.274c1.85 17.853 7.032 21.373 9.36 30.979 1.698 7.004 3.332 30.335 3.445 39.146.254 19.803 10.545 31.437 11.638 32.78 1.466 1.8 3.473 2.446 3.473 2.446l-2.298-5.232c-1.326-3.02-7.693-16.4-8.878-28.4-.752-7.614-.456-35.019-.858-52.514-.603-26.239-11.493-10.49-17.184-36.558-.494-2.263 0 0 0 0s5.524-6.608 7.886-8.152c3.076-2.009 7.61-4.274 10.571-3.903 4.13.516 10.903 1.309 14.201 7.005 3.403 5.877 5.129 17.868 6.216 28.251 1.027 9.82.091 22.882.304 34.058.237 12.51.233 29.488 1.12 41.002.8 10.406 2.88 21.328 4.197 28.082.923 4.742 3.698 12.453 3.698 12.453Z" fill="#008b10"/></g></g></svg>