<?xml version="1.0" encoding="UTF-8" standalone="no"?>
<!DOCTYPE svg PUBLIC "-//W3C//DTD SVG 1.1//EN" "http://www.w3.org/Graphics/SVG/1.1/DTD/svg11.dtd">
<svg width="100%" height="100%" viewBox="0 0 3792 899" version="1.1" xmlns="http://www.w3.org/2000/svg" xmlns:xlink="http://www.w3.org/1999/xlink" xml:space="preserve" xmlns:serif="http://www.serif.com/" style="fill-rule:evenodd;clip-rule:evenodd;stroke-linejoin:round;stroke-miterlimit:2;">
    <g transform="matrix(1,0,0,1,-19408.4,-1608.92)">
        <g id="FINAL---WEB-LARGE-DARK" serif:id="FINAL - WEB LARGE DARK" transform="matrix(4.22167,0,0,1,17861.8,1606.51)">
            <rect x="366.355" y="2.411" width="898.008" height="898.008" style="fill:none;"/>
            <g>
                <g transform="matrix(0.751945,0,0,3.17446,309.397,-1920.06)">
                    <g transform="matrix(0.652096,0,0,0.652096,-492.27,235.103)">
                        <path d="M1282.9,647.516L1283,606.902L1284.49,606.902C1288.24,606.902 1297.6,616.915 1300.96,620.097L1298.91,605.591L1243.32,605.591L1241.26,620.097C1244.63,616.915 1255.11,606.902 1258.85,606.902L1260.44,606.902L1260.44,656.687C1260.44,663.238 1260.73,665.484 1258.01,671.286L1285.34,671.286C1282.9,665.484 1282.9,663.238 1282.9,656.687L1282.9,647.516Z" style="fill:white;fill-rule:nonzero;"/>
                        <path d="M1325.3,671.286L1352.62,671.286C1350.19,665.484 1350.19,663.238 1350.19,656.687L1350.19,638.158L1367.97,638.158L1367.97,656.687C1367.97,663.238 1368.25,665.484 1365.54,671.286L1392.86,671.286C1390.43,665.484 1390.43,663.238 1390.43,656.687L1390.43,620.19C1390.43,613.639 1390.43,611.393 1392.86,605.591L1365.54,605.591C1368.25,611.393 1367.97,613.639 1367.97,620.19L1367.97,636.567L1350.19,636.567L1350.19,620.19C1350.19,613.639 1350.19,611.393 1352.62,605.591L1325.3,605.591C1328.01,611.393 1327.73,613.639 1327.73,620.19L1327.73,656.687C1327.73,663.238 1328.01,665.484 1325.3,671.286Z" style="fill:white;fill-rule:nonzero;"/>
                        <path d="M1444.89,669.976L1444.89,639.187L1447.05,639.187C1453.6,639.187 1457.53,642.556 1461.64,647.516L1461.64,629.361C1457.53,634.321 1453.6,637.596 1447.05,637.596L1444.89,637.596L1444.89,607.369C1451.35,608.118 1458,610.832 1464.36,619.909L1471.57,605.591L1420,605.591C1422.71,611.393 1422.43,613.639 1422.43,620.19L1422.43,656.687C1422.43,663.238 1422.71,665.484 1420,671.286L1471.1,671.286L1466.51,655.938C1464.08,661.928 1458.28,669.414 1444.89,669.976Z" style="fill:white;fill-rule:nonzero;"/>
                    </g>
                    <g transform="matrix(0.61861,0,0,0.61861,-450.705,447.901)">
                        <path d="M1280.56,672.783C1288.52,672.783 1296.47,670.818 1303.3,666.7L1297.32,644.615C1292.73,659.12 1284.31,669.134 1277.1,669.134C1268.68,669.134 1264.56,655.845 1264.56,641.433C1264.56,624.214 1270.27,605.404 1281.03,605.404C1288.14,605.404 1294.79,620.003 1296.66,634.602L1306.02,613.078C1298.62,606.527 1289.55,603.533 1280.47,603.533C1260.73,603.533 1241.26,617.57 1241.26,638.532C1241.26,660.524 1260.82,672.783 1280.56,672.783Z" style="fill:white;fill-rule:nonzero;"/>
                        <path d="M1363.66,672.783C1387.81,672.783 1401.66,656.406 1401.66,639.187C1401.66,621.875 1387.81,603.907 1363.66,603.907C1339.52,603.907 1325.67,621.875 1325.67,639.187C1325.67,656.406 1339.52,672.783 1363.66,672.783ZM1363.66,671.379C1355.99,671.379 1352.15,655.377 1352.15,638.626C1352.15,621.968 1355.99,605.311 1363.66,605.311C1371.34,605.311 1375.17,621.968 1375.17,638.626C1375.17,655.283 1371.34,671.379 1363.66,671.379Z" style="fill:white;fill-rule:nonzero;"/>
                        <path d="M1506.75,620.19C1506.75,613.639 1506.75,611.393 1509.18,605.591L1484.29,605.591L1468.01,651.072L1454.72,615.605C1452.57,609.896 1450.79,605.591 1446.77,605.591L1425.9,605.591C1427.11,607.276 1428.33,611.019 1429.73,614.95L1429.73,647.329C1429.73,654.348 1425.99,664.454 1420.38,671.286L1440.78,671.286C1435.16,664.454 1431.32,654.348 1431.32,647.329L1431.32,619.161L1451.26,671.286L1471.75,671.286C1468.66,664.454 1468.57,654.348 1471.1,647.329L1484.29,610.083L1484.29,656.687C1484.29,663.238 1484.57,665.484 1481.86,671.286L1509.18,671.286C1506.75,665.484 1506.75,663.238 1506.75,656.687L1506.75,620.19Z" style="fill:white;fill-rule:nonzero;"/>
                        <path d="M1535.39,671.286L1562.71,671.286C1560.28,665.484 1560.28,663.238 1560.28,656.687L1560.28,652.102C1577.5,653.412 1597.81,646.955 1597.81,627.022C1597.81,615.979 1590.6,605.779 1574.88,605.591L1535.39,605.591C1538.1,611.393 1537.82,613.639 1537.82,620.19L1537.82,656.687C1537.82,663.238 1538.1,665.484 1535.39,671.286ZM1560.28,650.136L1560.28,607.089L1564.68,607.089C1571.04,606.995 1574.22,615.605 1574.22,625.244C1574.22,636.754 1569.55,649.668 1560.28,650.136Z" style="fill:white;fill-rule:nonzero;"/>
                        <path d="M1607.16,671.286L1627.57,671.286C1623.92,664.454 1623.07,654.348 1625.23,647.329L1626.26,643.773L1648.43,643.773L1652.74,656.687C1654.89,663.238 1655.92,665.484 1655.17,671.286L1682.5,671.286C1678.1,665.484 1677.35,663.238 1675.2,656.687L1663.13,620.19C1660.97,613.639 1660.23,611.393 1660.69,605.591L1633.37,605.591L1635.24,608.025L1623.63,647.329C1621.48,654.348 1614.75,664.454 1607.16,671.286ZM1626.72,642.182L1636.36,609.709C1638.42,612.891 1639.08,615.418 1640.67,620.19L1647.97,642.182L1626.72,642.182Z" style="fill:white;fill-rule:nonzero;"/>
                        <path d="M1752.31,605.591C1757.92,612.423 1761.76,622.53 1761.76,629.548L1761.76,639.468L1727.51,605.591L1702.62,605.591C1707.11,609.241 1710.57,613.639 1710.57,619.348L1710.57,647.329C1710.57,654.348 1706.83,664.454 1701.21,671.286L1721.62,671.286C1716,664.454 1712.16,654.348 1712.16,647.329L1712.16,620.939L1762.14,671.286L1763.35,671.286L1763.35,629.548C1763.35,622.53 1767.1,612.423 1772.71,605.591L1752.31,605.591Z" style="fill:white;fill-rule:nonzero;"/>
                        <path d="M1812.95,671.286L1840.28,671.286C1837.84,665.484 1837.84,663.238 1837.84,656.687L1837.84,647.516L1844.39,629.548C1847.02,622.53 1854.5,612.423 1862.55,605.591L1842.15,605.591C1845.24,612.423 1845.42,622.53 1842.8,629.548L1837,645.551L1825.49,620.19C1822.5,613.639 1821.65,611.393 1821.56,605.591L1794.24,605.591C1799.48,611.393 1800.13,613.639 1803.03,620.19L1815.38,648.545L1815.38,656.687C1815.38,663.238 1815.66,665.484 1812.95,671.286Z" style="fill:white;fill-rule:nonzero;"/>
                    </g>
                    <g transform="matrix(1.28322,0,0,1.28322,-1275.85,-68.5583)">
                        <path d="M1241.41,671.286L1260.82,671.286C1258.19,665.017 1258.19,662.59 1258.19,655.513L1258.19,635.493L1287.52,635.493L1287.52,655.513C1287.52,662.59 1287.82,665.017 1284.89,671.286L1304.3,671.286C1301.67,665.017 1301.67,662.59 1301.67,655.513L1301.67,616.079C1301.67,609.002 1301.67,606.575 1304.3,600.306L1284.89,600.306C1287.82,606.575 1287.52,609.002 1287.52,616.079L1287.52,633.774L1258.19,633.774L1258.19,616.079C1258.19,609.002 1258.19,606.575 1260.82,600.306L1241.41,600.306C1244.34,606.575 1244.04,609.002 1244.04,616.079L1244.04,655.513C1244.04,662.59 1244.34,665.017 1241.41,671.286Z" style="fill:white;fill-rule:nonzero;"/>
                        <path d="M1349.7,672.904C1375.58,672.904 1389.34,654.603 1389.34,635.998C1389.34,617.394 1375.58,598.486 1349.7,598.486C1323.82,598.486 1310.06,617.394 1310.06,635.998C1310.06,654.603 1323.82,672.904 1349.7,672.904ZM1349.7,671.387C1334.13,671.387 1326.44,654.097 1326.44,635.998C1326.44,618.001 1334.13,600.003 1349.7,600.003C1365.27,600.003 1373.06,618.001 1373.06,635.998C1373.06,654.097 1365.27,671.387 1349.7,671.387Z" style="fill:white;fill-rule:nonzero;"/>
                        <path d="M1393.38,671.286L1412.79,671.286C1410.16,665.017 1410.16,662.59 1410.16,655.513L1410.16,635.189L1420.98,635.189C1442.12,635.189 1431.4,670.983 1447.07,671.084L1457.99,671.286C1455.46,669.365 1454.05,665.523 1452.83,661.579C1450.41,653.693 1448.79,634.279 1431.9,634.279L1431.9,633.976C1443.73,633.167 1449.6,625.28 1449.6,617.495C1449.6,608.901 1442.72,600.306 1429.27,600.306L1393.38,600.306C1396.31,606.575 1396.01,609.002 1396.01,616.079L1396.01,655.513C1396.01,662.59 1396.31,665.017 1393.38,671.286ZM1410.16,633.47L1410.16,601.722L1418.86,601.722C1430.89,601.722 1436.55,609.406 1436.55,617.192C1436.55,625.28 1430.49,633.369 1419.47,633.369L1410.16,633.47Z" style="fill:white;fill-rule:nonzero;"/>
                        <path d="M1494.89,601.722L1500.96,601.722C1505.01,601.722 1515.83,612.541 1519.46,615.978L1517.24,600.306L1457.18,600.306L1454.96,615.978C1458.6,612.541 1469.92,601.722 1473.96,601.722L1480.64,601.722L1480.64,655.513C1480.64,662.59 1480.94,665.017 1478.01,671.286L1497.42,671.286C1494.79,665.017 1494.79,662.59 1494.79,655.513L1494.79,642.975L1494.89,601.722Z" style="fill:white;fill-rule:nonzero;"/>
                        <path d="M1524.12,671.286L1543.53,671.286C1540.9,665.017 1540.9,662.59 1540.9,655.513L1540.9,616.079C1540.9,609.002 1540.9,606.575 1543.53,600.306L1524.12,600.306C1527.05,606.575 1526.75,609.002 1526.75,616.079L1526.75,655.513C1526.75,662.59 1527.05,665.017 1524.12,671.286Z" style="fill:white;fill-rule:nonzero;"/>
                        <path d="M1588.73,672.904C1597.32,672.904 1605.91,670.78 1613.3,666.331L1608.85,649.952C1603.69,662.489 1594.49,669.769 1585.79,669.769C1573.86,669.769 1563.75,657.231 1563.75,637.919C1563.75,615.877 1574.67,600.205 1587.82,600.205C1596.71,600.205 1605.41,609.811 1609.65,623.46L1616.13,608.597C1607.33,601.519 1597.32,598.284 1587.71,598.284C1564.76,598.284 1549.29,615.473 1549.29,635.493C1549.29,656.119 1565.07,672.904 1588.73,672.904Z" style="fill:white;fill-rule:nonzero;"/>
                        <path d="M1647.98,672.701C1660.11,672.701 1671.84,664.916 1671.84,649.042L1671.84,626.089C1671.84,618.506 1674.37,607.687 1679.73,600.306L1662.23,600.306C1667.69,607.687 1670.12,618.506 1670.12,626.089L1670.12,649.446C1670.12,662.793 1661.63,669.264 1653.13,669.264C1644.44,669.264 1635.64,662.489 1635.64,649.547L1635.64,616.079C1635.64,609.002 1635.64,606.575 1638.27,600.306L1618.86,600.306C1621.79,606.575 1621.49,609.002 1621.49,616.079L1621.49,646.413C1621.49,663.804 1635.03,672.701 1647.98,672.701Z" style="fill:white;fill-rule:nonzero;"/>
                        <path d="M1682.96,671.286L1733.92,671.286L1737.36,655.715C1731.19,661.175 1719.66,669.365 1710.56,669.365L1699.75,669.365L1699.75,616.079C1699.75,609.002 1699.75,606.575 1702.37,600.306L1682.96,600.306C1685.89,606.575 1685.59,609.002 1685.59,616.079L1685.59,655.513C1685.59,662.59 1685.89,665.017 1682.96,671.286Z" style="fill:white;fill-rule:nonzero;"/>
                        <path d="M1762.64,601.722L1768.7,601.722C1772.75,601.722 1783.57,612.541 1787.21,615.978L1784.98,600.306L1724.92,600.306L1722.7,615.978C1726.34,612.541 1737.66,601.722 1741.71,601.722L1748.38,601.722L1748.38,655.513C1748.38,662.59 1748.68,665.017 1745.75,671.286L1765.16,671.286C1762.54,665.017 1762.54,662.59 1762.54,655.513L1762.54,642.975L1762.64,601.722Z" style="fill:white;fill-rule:nonzero;"/>
                        <path d="M1820.37,672.701C1832.5,672.701 1844.23,664.916 1844.23,649.042L1844.23,626.089C1844.23,618.506 1846.76,607.687 1852.12,600.306L1834.63,600.306C1840.09,607.687 1842.51,618.506 1842.51,626.089L1842.51,649.446C1842.51,662.793 1834.02,669.264 1825.53,669.264C1816.83,669.264 1808.04,662.489 1808.04,649.547L1808.04,616.079C1808.04,609.002 1808.04,606.575 1810.66,600.306L1791.25,600.306C1794.18,606.575 1793.88,609.002 1793.88,616.079L1793.88,646.413C1793.88,663.804 1807.43,672.701 1820.37,672.701Z" style="fill:white;fill-rule:nonzero;"/>
                        <path d="M1855.36,671.286L1874.77,671.286C1872.14,665.017 1872.14,662.59 1872.14,655.513L1872.14,635.189L1882.96,635.189C1904.09,635.189 1893.37,670.983 1909.04,671.084L1919.96,671.286C1917.44,669.365 1916.02,665.523 1914.81,661.579C1912.38,653.693 1910.76,634.279 1893.88,634.279L1893.88,633.976C1905.71,633.167 1911.57,625.28 1911.57,617.495C1911.57,608.901 1904.7,600.306 1891.25,600.306L1855.36,600.306C1858.29,606.575 1857.98,609.002 1857.98,616.079L1857.98,655.513C1857.98,662.59 1858.29,665.017 1855.36,671.286ZM1872.14,633.47L1872.14,601.722L1880.84,601.722C1892.87,601.722 1898.53,609.406 1898.53,617.192C1898.53,625.28 1892.46,633.369 1881.44,633.369L1872.14,633.47Z" style="fill:white;fill-rule:nonzero;"/>
                        <path d="M1946.15,669.87L1940.79,669.87L1940.79,636.605L1950.1,636.605C1957.17,636.605 1961.42,639.436 1965.87,644.492L1965.87,626.999C1961.42,632.055 1957.17,634.886 1950.1,634.886L1940.79,634.886L1940.79,601.924L1942.82,602.025C1950.7,602.025 1960.81,603.339 1970.01,613.248L1976.59,600.306L1924.01,600.306C1926.94,606.575 1926.64,609.002 1926.64,616.079L1926.64,655.513C1926.64,662.59 1926.94,665.017 1924.01,671.286L1976.08,671.286L1972.04,657.838C1967.38,663.601 1959.3,669.87 1946.15,669.87Z" style="fill:white;fill-rule:nonzero;"/>
                    </g>
                </g>
                <g transform="matrix(0.741939,0,0,0.993481,93.1522,-4.18052)">
                    <g transform="matrix(-0.443369,0.492741,-0.170466,-1.52465,715.431,1041.37)">
                        <path d="M520.155,294.323C520.155,294.323 537.27,310.072 544.127,320.975C555.125,338.462 560.652,363.413 557.588,375.41C554.506,387.482 548.249,398.62 543.407,406.432C539.505,412.726 528.523,424.444 519.966,429.832C511.366,435.246 504.824,436.812 504.824,436.812C504.824,436.812 517.216,422.538 522.336,410.023C524.144,405.603 526.084,393.838 522.669,381.566C520.882,375.143 522.351,367.418 523.852,363.749C525.727,359.166 529.91,348.94 529.91,348.94C529.91,348.94 534.259,345.041 529.91,348.94C527.803,350.829 516.968,362.349 513.654,372.56C510.54,382.154 513.05,396.762 512.833,400.728C512.485,407.108 509.364,424.044 500.115,433.556C496.308,437.471 500.115,433.556 500.115,433.556C500.115,433.556 487.181,421.867 480.39,411.593C473.337,400.922 474.536,383.538 478.126,370.304C479.984,363.455 486.332,349.087 491.901,341.849C497.557,334.498 508.094,328.851 514.004,321.317C519.984,313.694 520.155,294.323 520.155,294.323Z" style="fill:rgb(0,85,1);"/>
                    </g>
                    <g transform="matrix(1.03401,-0.76122,0.241445,3.26,-297.061,52.8201)">
                        <circle cx="599.213" cy="301.4" r="12.012" style="fill:rgb(212,103,0);"/>
                    </g>
                    <g transform="matrix(0.455403,-0.33526,0.106338,1.43578,93.3517,570.959)">
                        <circle cx="599.213" cy="301.4" r="12.012" style="fill:rgb(105,51,0);"/>
                    </g>
                    <g transform="matrix(0.554314,0.814743,-0.186637,1.26217,328.983,-532.895)">
                        <path d="M535.708,294.003C535.708,294.003 544.296,312.936 547.339,325.209C550.499,337.957 550.874,359.974 549.136,372.191C547.544,383.381 542.84,393.95 537.998,401.762C534.096,408.056 527.567,415.189 523.123,418.41C520.012,420.664 515.629,423.841 515.629,423.841C515.629,423.841 520.021,414.814 522.956,408.783C526.233,402.049 528.388,389.085 532.384,372.212C533.495,367.521 538.081,350.733 538.081,350.733C538.081,350.733 528.097,374.054 523.84,383.999C521.428,389.632 519.883,406.81 509.619,424.713C506.518,430.123 509.619,424.713 509.619,424.713C509.619,424.713 502.72,420.212 498.718,415.914C490.262,406.832 489.548,393.906 490.585,388.446C493.601,372.551 504.765,361.615 510.334,354.378C515.99,347.027 530.937,331.036 533.033,317.808C534.695,307.314 535.708,294.003 535.708,294.003Z" style="fill:rgb(0,139,16);"/>
                    </g>
                    <g transform="matrix(0.110342,1.47309,-0.467235,0.347884,654.811,-207.111)">
                        <path d="M535.708,294.003C535.708,294.003 548.734,316.091 551.777,328.364C554.937,341.112 557.039,360.172 555.3,372.389C553.709,383.579 546.82,395.756 541.978,403.568C538.077,409.862 531.008,416.987 526.564,420.208C523.454,422.462 515.629,423.841 515.629,423.841C515.629,423.841 521.997,409.709 524.932,403.678C528.209,396.944 531.887,387.134 532.017,373.588C532.065,368.694 529.91,348.94 529.91,348.94C529.91,348.94 534.259,345.041 529.91,348.94C526.26,352.213 523.748,374.902 523.237,384.281C522.889,390.661 512.631,414.433 498.584,422.819C493.789,425.682 498.584,422.819 498.584,422.819C498.584,422.819 490.438,412.53 488.411,406.427C486.017,399.223 484.598,386.751 484.222,379.593C483.938,374.191 484.179,368.517 486.152,363.479C488.753,356.837 494.26,346.978 499.829,339.741C505.484,332.39 514.177,326.908 520.087,319.374C526.067,311.751 535.708,294.003 535.708,294.003Z" style="fill:rgb(0,85,1);"/>
                    </g>
                    <g transform="matrix(-0.363688,-1.12523,-0.399592,1.28378,917.071,866.66)">
                        <path d="M711.473,293.147C711.473,293.147 713.562,315.251 716.562,325.877C719.959,337.91 724.086,350.29 731.855,362.066C740.252,374.793 755.548,372.871 766.942,380.009C784.769,391.178 797.352,418.418 797.433,428.471C797.714,463.378 769.234,485.703 769.234,485.703C769.234,485.703 768.473,457.249 752.682,437.773C732.271,412.601 706.278,395.626 706.278,395.626C706.278,395.626 737.219,433.415 746.052,448.175C758.861,469.582 752.682,485.177 752.682,485.177C752.682,485.177 749.727,489.162 731.855,491.181C705.366,494.172 680.603,466.618 673.824,458.302C660.655,442.147 658.999,416.278 662.711,395.626C666.422,374.975 683.646,351.628 691.773,334.549C698.078,321.298 711.473,293.147 711.473,293.147Z" style="fill:rgb(121,219,21);"/>
                    </g>
                    <g transform="matrix(0.13379,0.727006,-0.270881,0.495508,471.774,-599.077)">
                        <path d="M639.471,308.906C639.471,308.906 689.115,334.455 705.523,341.53C737.384,355.269 752.703,367.119 766.942,380.009C781.388,393.088 797.352,418.418 797.433,428.471C797.714,463.378 765.691,497.498 765.691,497.498C765.691,497.498 765.076,479.677 757.235,457.454C750.039,437.061 742.021,433.011 720.792,418.74C702.199,406.241 701.57,388.504 701.57,388.504C701.57,388.504 703.118,404.782 710.794,419.06C721.588,439.135 732.609,442.862 743.728,459.913C758.399,482.411 749.5,494.743 749.5,494.743C749.5,494.743 692.174,475.567 673.389,450.553C661.05,434.122 659.724,419.603 663.435,398.951C667.146,378.3 674.707,363.842 665.416,347.662C657.956,334.669 639.471,308.906 639.471,308.906Z" style="fill:rgb(0,139,16);"/>
                    </g>
                    <g transform="matrix(0.652944,2.49319,-0.370203,0.963708,7.79804,-2115.74)">
                        <path d="M856.457,114.462C856.457,114.462 868.912,125.973 873.547,132.977C880.92,144.12 894.332,167.298 900.695,181.322C905.854,192.692 909.296,204.871 911.723,217.119C914.283,230.043 916.637,244.931 916.058,258.862C915.48,272.793 911.712,287.351 908.252,300.707C904.873,313.751 898.534,325.918 895.3,338.999C891.865,352.897 887.64,384.09 887.64,384.09C887.64,384.09 888,371.537 888.555,364.225C890.49,338.688 884.516,322.974 883.799,306.28C883.276,294.107 886.838,262.473 888.848,251.643C893.366,227.303 887.375,210.343 886.262,206.309C884.769,200.895 882.28,195.672 882.28,195.672C882.28,195.672 883.094,200.966 884.028,207.048C885.037,213.613 885.425,223.972 884.048,241.007C883.174,251.814 881.171,273.122 877.414,295.019C871.779,327.858 884.9,344.031 886.019,387.944C886.117,391.757 886.019,387.944 886.019,387.944C886.019,387.944 877.113,383.632 873.618,380.248C869.067,375.84 862.532,368.51 858.715,361.498C853.394,351.723 844.652,335.755 841.697,321.603C838.648,307.004 839.31,288.781 840.421,273.905C841.472,259.839 845.908,246.231 848.367,232.342C851.12,216.797 855.286,196.42 856.938,180.631C858.432,166.362 858.365,148.639 858.284,137.611C858.228,129.871 856.457,114.462 856.457,114.462Z" style="fill:rgb(0,85,1);"/>
                    </g>
                    <g transform="matrix(0.48,-0.12946,0.0409203,1.5081,7.09063,-27.5079)">
                        <path d="M818.056,140.288C818.056,140.288 835.719,157.344 842.01,167.729C848.417,178.304 859.597,206.04 858.858,231.633C858.49,244.354 853.854,265.879 849.777,277.988C845.067,291.979 838.864,313.333 837.09,327.916C833.913,354.038 842.278,386.311 844.419,400.998C846.062,412.266 837.354,428.292 837.354,428.292C837.354,428.292 832.16,412.986 830.462,407.865C824.452,389.738 814.054,382.3 806.707,368.85C795.648,348.605 792.963,323.846 796.725,304.491C798.324,296.262 804.986,279.701 806.991,270.085C809.125,259.848 806.991,270.085 806.991,270.085C806.991,270.085 794.329,285.442 787.484,297.752C768.884,331.204 778.017,353.931 789.454,372.154C802.357,392.711 815.004,404.614 821.001,414.17C829.236,427.291 828.238,433.947 828.238,433.947C828.238,433.947 811.689,437.795 804.945,433.947C795.914,428.793 783.411,414.19 774.052,403.023C763.581,390.53 755.047,375.21 748.024,359.495C741.049,343.889 737.813,324.987 737.813,309.241C737.813,294.114 741.265,278.556 748.024,265.023C755.047,250.959 769.682,238.535 779.953,224.86C790.423,210.92 797.611,194.886 804.945,180.875C811.539,168.279 818.056,140.288 818.056,140.288Z" style="fill:rgb(0,139,16);"/>
                    </g>
                    <g transform="matrix(0.377518,0,0,1.19023,202.79,-246.282)">
                        <circle cx="599.213" cy="301.4" r="12.012" style="fill:rgb(212,103,0);"/>
                    </g>
                    <g transform="matrix(0.749026,0,0,2.36151,40.5195,-564.484)">
                        <circle cx="599.213" cy="301.4" r="12.012" style="fill:rgb(105,51,0);"/>
                    </g>
                    <g transform="matrix(0.731281,0,0,2.30556,67.0925,53.4345)">
                        <circle cx="599.213" cy="301.4" r="12.012" style="fill:rgb(105,51,0);"/>
                    </g>
                    <g transform="matrix(0.527339,0,0,1.66258,238.484,21.9537)">
                        <circle cx="599.213" cy="301.4" r="12.012" style="fill:rgb(105,51,0);"/>
                    </g>
                    <g transform="matrix(0.439913,0,0,1.38695,237.241,47.7687)">
                        <circle cx="599.213" cy="301.4" r="12.012" style="fill:rgb(212,103,0);"/>
                    </g>
                    <g transform="matrix(0.586975,0,0,1.8506,76.8556,24.6114)">
                        <circle cx="599.213" cy="301.4" r="12.012" style="fill:rgb(105,51,0);"/>
                    </g>
                    <g transform="matrix(0.318558,0,0,1.00434,250.294,566.36)">
                        <circle cx="599.213" cy="301.4" r="12.012" style="fill:rgb(212,103,0);"/>
                    </g>
                    <g transform="matrix(-0.564388,1.04219,-0.11521,-0.620169,995.907,69.9855)">
                        <path d="M856.457,114.462C856.457,114.462 868.912,125.973 873.547,132.977C880.92,144.12 894.332,167.298 900.695,181.322C905.854,192.692 909.296,204.871 911.723,217.119C914.283,230.043 916.637,244.931 916.058,258.862C915.48,272.793 911.712,287.351 908.252,300.707C904.873,313.751 898.534,325.918 895.3,338.999C891.865,352.897 887.64,384.09 887.64,384.09C887.64,384.09 888,371.537 888.555,364.225C890.49,338.688 884.516,322.974 883.799,306.28C883.276,294.107 886.838,262.473 888.848,251.643C893.366,227.303 882.641,190.521 881.528,186.486C880.035,181.073 877.546,175.849 877.546,175.849C877.546,175.849 878.36,181.144 879.295,187.225C880.304,193.791 885.425,223.972 884.048,241.007C883.174,251.814 876.066,284.059 872.309,305.956C866.674,338.795 884.9,344.031 886.019,387.944C886.117,391.757 886.019,387.944 886.019,387.944C886.019,387.944 877.113,383.632 873.618,380.248C869.067,375.84 862.532,368.51 858.715,361.498C853.394,351.723 844.652,335.755 841.697,321.603C838.648,307.004 839.31,288.781 840.421,273.905C841.472,259.839 845.908,246.231 848.367,232.342C851.12,216.797 855.286,196.42 856.938,180.631C858.432,166.362 858.365,148.639 858.284,137.611C858.228,129.871 856.457,114.462 856.457,114.462Z" style="fill:rgb(0,139,16);"/>
                    </g>
                </g>
            </g>
        </g>
    </g>
</svg>
