<?xml version="1.0" encoding="UTF-8" standalone="no"?>
<!DOCTYPE svg PUBLIC "-//W3C//DTD SVG 1.1//EN" "http://www.w3.org/Graphics/SVG/1.1/DTD/svg11.dtd">
<svg width="100%" height="100%" viewBox="0 0 3508 2481" version="1.1" xmlns="http://www.w3.org/2000/svg" xmlns:xlink="http://www.w3.org/1999/xlink" xml:space="preserve" xmlns:serif="http://www.serif.com/" style="fill-rule:evenodd;clip-rule:evenodd;stroke-miterlimit:10;">
    <g transform="matrix(1,0,0,1,-35838.7,-14039.8)">
        <g id="Lume-Hire-Logo---V2" serif:id="Lume Hire Logo - V2" transform="matrix(1,0,0,1,35838.7,14039.8)">
            <rect x="0" y="0" width="3507.87" height="2480.32" style="fill:none;"/>
            <clipPath id="_clip1">
                <rect x="0" y="0" width="3507.87" height="2480.32"/>
            </clipPath>
            <g clip-path="url(#_clip1)">
                <g id="Immersive24-Final" serif:id="Immersive24 Final" transform="matrix(1.91162,0,0,1.91162,5335.53,-2012.88)">
                    <g transform="matrix(2.76764,0,0,2.76764,-2787.76,1102.75)">
                        <g>
                            <g transform="matrix(0.686925,0.0431646,0.414777,-0.842964,253.762,277.53)">
                                <path d="M-256.124,70.03L-400.313,97.222" style="fill:none;fill-rule:nonzero;stroke:white;stroke-width:3.97px;"/>
                            </g>
                            <g transform="matrix(0.686925,0.0431646,0.414777,-0.842964,253.762,277.53)">
                                <path d="M-329.63,158.036L-400.313,97.222" style="fill:none;fill-rule:nonzero;stroke:white;stroke-width:3.97px;"/>
                            </g>
                            <g transform="matrix(0.686925,0.0431646,0.414777,-0.842964,253.762,277.53)">
                                <path d="M-329.63,158.036L-321.835,240.649" style="fill:none;fill-rule:nonzero;stroke:white;stroke-width:3.97px;"/>
                            </g>
                            <g transform="matrix(0.686925,0.0431646,0.414777,-0.842964,253.762,277.53)">
                                <path d="M-268.347,261.017L-321.835,240.649" style="fill:none;fill-rule:nonzero;stroke:white;stroke-width:3.97px;"/>
                            </g>
                            <g transform="matrix(0.686925,0.0431646,0.414777,-0.842964,274.071,587.351)">
                                <path d="M-162.648,299.389L-321.835,240.649" style="fill:none;fill-rule:nonzero;stroke:white;stroke-width:3.97px;"/>
                            </g>
                            <g transform="matrix(0.686925,0.0431646,0.414777,-0.842964,253.762,277.53)">
                                <path d="M-198.238,144.841L-321.835,240.649" style="fill:none;fill-rule:nonzero;stroke:white;stroke-width:3.97px;"/>
                            </g>
                            <g transform="matrix(0.686925,0.0431646,0.414777,-0.842964,253.762,277.53)">
                                <path d="M-329.63,158.036L-198.238,144.841" style="fill:none;fill-rule:nonzero;stroke:white;stroke-width:3.97px;"/>
                            </g>
                            <g transform="matrix(-0.0362026,-0.999344,-0.999344,0.0362026,408.052,426.412)">
                                <path d="M-11.86,-12.29C-18.409,-12.289 -23.717,-6.978 -23.716,-0.428C-23.718,6.122 -18.409,11.438 -11.86,11.437C-5.306,11.437 0.004,6.123 0.004,-0.428C0.005,-6.979 -5.305,-12.289 -11.86,-12.29" style="fill:white;fill-rule:nonzero;stroke:white;stroke-width:0.19px;stroke-linejoin:round;stroke-miterlimit:2;"/>
                            </g>
                            <g transform="matrix(-0.0362026,-0.999344,-0.999344,0.0362026,646.633,219.454)">
                                <path d="M-11.86,-12.29C-18.409,-12.289 -23.717,-6.978 -23.716,-0.428C-23.718,6.122 -18.409,11.438 -11.86,11.437C-5.306,11.437 0.004,6.123 0.004,-0.428C0.005,-6.979 -5.305,-12.289 -11.86,-12.29" style="fill:white;fill-rule:nonzero;stroke:white;stroke-width:0.19px;stroke-linejoin:round;stroke-miterlimit:2;"/>
                            </g>
                            <g transform="matrix(-0.0312421,-0.862514,-0.862514,0.0312421,132.011,54.0267)">
                                <path d="M-7.841,-8.13C-12.176,-8.129 -15.686,-4.617 -15.685,-0.284C-15.686,4.049 -12.176,7.56 -7.841,7.561C-3.51,7.561 0.003,4.049 0.005,-0.284C0.004,-4.617 -3.51,-8.13 -7.841,-8.13" style="fill:white;fill-rule:nonzero;stroke:white;stroke-width:0.22px;stroke-linejoin:round;stroke-miterlimit:2;"/>
                            </g>
                            <g transform="matrix(-0.0390293,-1.07631,-1.07631,0.0390293,106.048,196.088)">
                                <path d="M-10.563,-10.95C-16.395,-10.951 -21.133,-6.218 -21.132,-0.382C-21.132,5.456 -16.397,10.188 -10.563,10.187C-4.725,10.188 0.009,5.455 0.008,-0.383C0.008,-6.22 -4.724,-10.95 -10.563,-10.95" style="fill:white;fill-rule:nonzero;stroke:white;stroke-width:0.18px;stroke-linejoin:round;stroke-miterlimit:2;"/>
                            </g>
                            <g transform="matrix(-0.0362189,-0.999344,-0.999344,0.0362189,92.4381,124.081)">
                                <path d="M-6.016,-6.237C-9.338,-6.237 -12.033,-3.542 -12.032,-0.218C-12.034,3.107 -9.339,5.801 -6.016,5.8C-2.689,5.801 0.004,3.107 0.004,-0.219C0.003,-3.542 -2.69,-6.238 -6.016,-6.237" style="fill:white;fill-rule:nonzero;stroke:white;stroke-width:0.19px;stroke-linejoin:round;stroke-miterlimit:2;"/>
                            </g>
                            <g transform="matrix(-0.0291322,-0.803378,-0.803378,0.0291322,177.34,138.403)">
                                <path d="M-10.563,-10.95C-16.395,-10.951 -21.133,-6.218 -21.132,-0.382C-21.132,5.456 -16.397,10.188 -10.563,10.187C-4.725,10.188 0.009,5.455 0.008,-0.383C0.008,-6.22 -4.724,-10.95 -10.563,-10.95" style="fill:white;fill-rule:nonzero;stroke:white;stroke-width:0.24px;stroke-linejoin:round;stroke-miterlimit:2;"/>
                            </g>
                            <g transform="matrix(0.686925,0.0431646,0.414777,-0.842964,253.762,277.53)">
                                <path d="M-329.63,158.036L-198.238,144.841" style="fill:none;fill-rule:nonzero;stroke:white;stroke-width:3.97px;"/>
                            </g>
                            <g transform="matrix(-0.0236315,-0.651685,-0.651685,0.0236315,92.3828,123.209)">
                                <path d="M-10.563,-10.95C-16.395,-10.951 -21.133,-6.218 -21.132,-0.382C-21.132,5.456 -16.397,10.188 -10.563,10.187C-4.725,10.188 0.009,5.455 0.008,-0.383C0.008,-6.22 -4.724,-10.95 -10.563,-10.95" style="fill:white;fill-rule:nonzero;stroke:white;stroke-width:0.29px;stroke-linejoin:round;stroke-miterlimit:2;"/>
                            </g>
                            <g transform="matrix(-0.0390293,-1.07631,-1.07631,0.0390293,106.048,196.088)">
                                <path d="M-10.563,-10.95C-16.395,-10.951 -21.133,-6.218 -21.132,-0.382C-21.132,5.456 -16.397,10.188 -10.563,10.187C-4.725,10.188 0.009,5.455 0.008,-0.383C0.008,-6.22 -4.724,-10.95 -10.563,-10.95" style="fill:white;fill-rule:nonzero;stroke:white;stroke-width:0.18px;stroke-linejoin:round;stroke-miterlimit:2;"/>
                                <g transform="matrix(0.750083,3.15268e-18,3.95859e-17,0.750083,-40.9642,78.002)">
                                    <path d="M-10.563,-10.95C-16.395,-10.951 -21.133,-6.218 -21.132,-0.382C-21.132,5.456 -16.397,10.188 -10.563,10.187C-4.725,10.188 0.009,5.455 0.008,-0.383C0.008,-6.22 -4.724,-10.95 -10.563,-10.95" style="fill:white;fill-rule:nonzero;stroke:white;stroke-width:0.23px;stroke-linejoin:round;stroke-miterlimit:2;"/>
                                </g>
                                <g transform="matrix(0.7204,1.99331e-17,4.75758e-17,0.7204,27.0439,80.3513)">
                                    <path d="M-10.563,-10.95C-16.395,-10.951 -21.133,-6.218 -21.132,-0.382C-21.132,5.456 -16.397,10.188 -10.563,10.187C-4.725,10.188 0.009,5.455 0.008,-0.383C0.008,-6.22 -4.724,-10.95 -10.563,-10.95" style="fill:white;fill-rule:nonzero;stroke:white;stroke-width:0.24px;stroke-linejoin:round;stroke-miterlimit:2;"/>
                                </g>
                                <g transform="matrix(0.869862,-0.0315431,0.0315431,0.869862,-25.8702,-65.2677)">
                                    <path d="M-10.563,-10.95C-16.395,-10.951 -21.133,-6.218 -21.132,-0.382C-21.132,5.456 -16.397,10.188 -10.563,10.187C-4.725,10.188 0.009,5.455 0.008,-0.383C0.008,-6.22 -4.724,-10.95 -10.563,-10.95" style="fill:white;fill-rule:nonzero;stroke:white;stroke-width:0.2px;stroke-linejoin:round;stroke-miterlimit:2;"/>
                                </g>
                            </g>
                            <g transform="matrix(-0.0292752,-0.807323,-0.807323,0.0292752,72.6618,334.9)">
                                <path d="M-10.563,-10.95C-16.395,-10.951 -21.133,-6.218 -21.132,-0.382C-21.132,5.456 -16.397,10.188 -10.563,10.187C-4.725,10.188 0.009,5.455 0.008,-0.383C0.008,-6.22 -4.724,-10.95 -10.563,-10.95" style="fill:white;fill-rule:nonzero;stroke:white;stroke-width:0.23px;stroke-linejoin:round;stroke-miterlimit:2;"/>
                            </g>
                            <g transform="matrix(0.74037,0,0,0.74037,198.202,120.846)">
                                <g transform="matrix(-0.0361777,-0.999345,-0.999345,0.0361777,118.804,272.971)">
                                    <path d="M-6.782,-7.031C-10.529,-7.032 -13.568,-3.993 -13.566,-0.247C-13.567,3.502 -10.53,6.541 -6.782,6.54C-3.031,6.541 0.003,3.503 0.003,-0.245C0.004,-3.993 -3.03,-7.031 -6.782,-7.031" style="fill:white;fill-rule:nonzero;stroke:white;stroke-width:0.26px;stroke-linejoin:round;stroke-miterlimit:2;"/>
                                </g>
                                <g transform="matrix(-0.0361777,-0.999345,-0.999345,0.0361777,118.804,272.971)">
                                    <circle cx="-6.782" cy="-0.245" r="6.786" style="fill:white;stroke:white;stroke-width:2.13px;"/>
                                </g>
                            </g>
                            <g transform="matrix(1,0,0,1,-95.5486,5.3667)">
                                <g transform="matrix(-0.0267849,-0.739885,-0.739885,0.0267849,272.85,35.5409)">
                                    <path d="M-6.782,-7.031C-10.529,-7.032 -13.568,-3.993 -13.566,-0.247C-13.567,3.502 -10.53,6.541 -6.782,6.54C-3.031,6.541 0.003,3.503 0.003,-0.245C0.004,-3.993 -3.03,-7.031 -6.782,-7.031" style="fill:white;fill-rule:nonzero;stroke:white;stroke-width:0.26px;stroke-linejoin:round;stroke-miterlimit:2;"/>
                                </g>
                                <g transform="matrix(-0.0267849,-0.739885,-0.739885,0.0267849,272.85,35.5409)">
                                    <circle cx="-6.782" cy="-0.245" r="6.786" style="fill:white;stroke:white;stroke-width:2.13px;"/>
                                </g>
                            </g>
                            <g id="UP-LINE-" serif:id="UP LINE\" transform="matrix(0,1.39653,1,0,269.703,102.752)">
                                <path d="M-77.451,-92.039L92.039,-92.039" style="fill:none;fill-rule:nonzero;stroke:white;stroke-width:4.61px;"/>
                            </g>
                            <g transform="matrix(-0.0362026,-0.999344,-0.999344,0.0362026,176.808,-17.2434)">
                                <path d="M-11.86,-12.29C-18.409,-12.289 -23.717,-6.978 -23.716,-0.428C-23.718,6.122 -18.409,11.438 -11.86,11.437C-5.306,11.437 0.004,6.123 0.004,-0.428C0.005,-6.979 -5.305,-12.289 -11.86,-12.29" style="fill:white;fill-rule:nonzero;stroke:white;stroke-width:0.19px;stroke-linejoin:round;stroke-miterlimit:2;"/>
                            </g>
                            <g id="RIGHT-LINE" serif:id="RIGHT LINE" transform="matrix(1.72181,0.000163331,9.48605e-05,-1,177.664,231.274)">
                                <path d="M-0,-0.013L267.269,0.031" style="fill:white;fill-rule:nonzero;stroke:white;stroke-width:3.98px;"/>
                            </g>
                            <g transform="matrix(1.8824,1.11743,-0.149791,-1.35029,179.231,210.555)">
                                <path d="M-2.4,-16.387L116.25,-72.42" style="fill:white;fill-rule:nonzero;stroke:white;stroke-width:3.09px;"/>
                            </g>
                            <g transform="matrix(0.686925,0.0431646,0.414777,-0.842964,253.762,277.53)">
                                <path d="M-209.081,-88.866L-341.93,13.087" style="fill:none;fill-rule:nonzero;stroke:white;stroke-width:3.97px;"/>
                            </g>
                            <g transform="matrix(0.686925,0.0431646,0.414777,-0.842964,253.762,277.53)">
                                <path d="M-197.993,-16.476L-341.93,13.087" style="fill:none;fill-rule:nonzero;stroke:white;stroke-width:3.97px;"/>
                            </g>
                            <g transform="matrix(0.686925,0.0431646,0.414777,-0.842964,253.762,277.53)">
                                <path d="M-197.993,-16.476L-5.053,-15.732" style="fill:none;fill-rule:nonzero;stroke:white;stroke-width:3.97px;"/>
                            </g>
                            <g transform="matrix(0.686925,0.0431646,0.414777,-0.842964,253.762,277.53)">
                                <path d="M-197.993,-16.476L-256.124,70.03" style="fill:none;fill-rule:nonzero;stroke:white;stroke-width:3.97px;"/>
                            </g>
                            <g transform="matrix(-0.0353274,-0.974223,-0.974223,0.0353274,110.177,272.596)">
                                <path d="M-10.563,-10.95C-16.395,-10.951 -21.133,-6.218 -21.132,-0.382C-21.132,5.456 -16.397,10.188 -10.563,10.187C-4.725,10.188 0.009,5.455 0.008,-0.383C0.008,-6.22 -4.724,-10.95 -10.563,-10.95" style="fill:white;fill-rule:nonzero;stroke:white;stroke-width:0.19px;stroke-linejoin:round;stroke-miterlimit:2;"/>
                            </g>
                            <g transform="matrix(0.686925,0.0431646,0.414777,-0.842964,175.662,248.942)">
                                <path d="M-211.782,-14.162L-270.165,69.974" style="fill:none;fill-rule:nonzero;stroke:white;stroke-width:3.97px;"/>
                            </g>
                            <g transform="matrix(0.686925,0.0431646,0.414777,-0.842964,253.762,277.53)">
                                <path d="M-198.496,-16.852L-209.081,-88.866" style="fill:none;fill-rule:nonzero;stroke:white;stroke-width:3.97px;"/>
                            </g>
                            <g transform="matrix(0.686925,0.0431646,0.414777,-0.842964,253.762,277.53)">
                                <path d="M-77.886,-114.398L-209.081,-88.866" style="fill:none;fill-rule:nonzero;stroke:white;stroke-width:3.97px;"/>
                            </g>
                            <g transform="matrix(0.686925,0.0431646,0.414777,-0.842964,253.762,277.53)">
                                <path d="M-77.886,-114.398L-189.973,-21.843L-197.004,-16.528" style="fill:white;fill-rule:nonzero;stroke:white;stroke-width:3.97px;"/>
                            </g>
                            <g transform="matrix(0.686925,0.0431646,0.414777,-0.842964,253.322,278.453)">
                                <path d="M-139.609,48.804L-197.318,-16.288" style="fill:none;fill-rule:nonzero;stroke:white;stroke-width:3.97px;"/>
                            </g>
                            <g transform="matrix(0.686925,0.0431646,0.414777,-0.842964,253.322,194.043)">
                                <path d="M-139.609,48.804L-197.494,-26.007" style="fill:none;fill-rule:nonzero;stroke:white;stroke-width:3.97px;"/>
                            </g>
                            <g transform="matrix(0.686925,0.0431646,0.414777,-0.842964,299.262,357.203)">
                                <path d="M-124.661,72.658L-197.494,-26.007" style="fill:none;fill-rule:nonzero;stroke:white;stroke-width:3.97px;"/>
                            </g>
                            <g transform="matrix(-0.0390293,-1.07631,-1.07631,0.0390293,151.988,359.248)">
                                <path d="M-10.563,-10.95C-16.395,-10.951 -21.133,-6.218 -21.132,-0.382C-21.132,5.456 -16.397,10.188 -10.563,10.187C-4.725,10.188 0.009,5.455 0.008,-0.383C0.008,-6.22 -4.724,-10.95 -10.563,-10.95" style="fill:white;fill-rule:nonzero;stroke:white;stroke-width:0.18px;stroke-linejoin:round;stroke-miterlimit:2;"/>
                            </g>
                            <g transform="matrix(-0.0236315,-0.651685,-0.651685,0.0236315,243.268,283.699)">
                                <path d="M-10.563,-10.95C-16.395,-10.951 -21.133,-6.218 -21.132,-0.382C-21.132,5.456 -16.397,10.188 -10.563,10.187C-4.725,10.188 0.009,5.455 0.008,-0.383C0.008,-6.22 -4.724,-10.95 -10.563,-10.95" style="fill:white;fill-rule:nonzero;stroke:white;stroke-width:0.29px;stroke-linejoin:round;stroke-miterlimit:2;"/>
                            </g>
                        </g>
                    </g>
                    <g transform="matrix(0.293901,0,0,0.293901,-9871.04,-846.77)">
                        <g transform="matrix(1.72568,0,0,1.72568,-18612.8,-12057.9)">
                            <path d="M26554.2,11872.9L26820.7,11872.9L26820.7,11787.9L26651.2,11787.9L26651.2,11522.9L26554.2,11522.9L26554.2,11872.9Z" style="fill:white;fill-rule:nonzero;stroke:white;stroke-width:1.03px;stroke-linejoin:round;stroke-miterlimit:2;"/>
                            <path d="M27044.7,11879.4C27144.2,11879.4 27208.7,11829.9 27208.7,11716.9L27208.7,11522.9L27110.2,11522.9L27110.2,11719.9C27110.2,11768.9 27084.7,11791.9 27045.7,11791.9C27006.7,11791.9 26981.2,11767.9 26981.2,11717.4L26981.2,11522.9L26882.7,11522.9L26882.7,11719.4C26882.7,11828.9 26945.2,11879.4 27044.7,11879.4Z" style="fill:white;fill-rule:nonzero;stroke:white;stroke-width:1.03px;stroke-linejoin:round;stroke-miterlimit:2;"/>
                            <path d="M27301.2,11872.9L27396.2,11872.9L27396.2,11672.9L27485.2,11808.9L27487.2,11808.9L27576.7,11671.9L27576.7,11872.9L27673.2,11872.9L27673.2,11522.9L27570.7,11522.9L27487.2,11658.4L27403.7,11522.9L27301.2,11522.9L27301.2,11872.9Z" style="fill:white;fill-rule:nonzero;stroke:white;stroke-width:1.03px;stroke-linejoin:round;stroke-miterlimit:2;"/>
                            <path d="M27770.2,11872.9L28054.2,11872.9L28054.2,11790.4L27866.2,11790.4L27866.2,11734.9L28034.2,11734.9L28034.2,11658.4L27866.2,11658.4L27866.2,11605.4L28051.7,11605.4L28051.7,11522.9L27770.2,11522.9L27770.2,11872.9Z" style="fill:white;fill-rule:nonzero;stroke:white;stroke-width:1.03px;stroke-linejoin:round;stroke-miterlimit:2;"/>
                        </g>
                        <g transform="matrix(0.891437,0,0,0.891437,3776.4,-788.288)">
                            <path d="M26583.3,11872.9L26771,11872.9L26771,11615.4L27012,11615.4L27012,11872.9L27199.8,11872.9L27199.8,11195.3L27012,11195.3L27012,11448.9L26771,11448.9L26771,11195.3L26583.3,11195.3L26583.3,11872.9Z" style="fill:white;fill-rule:nonzero;stroke:white;stroke-width:2px;stroke-linejoin:round;stroke-miterlimit:2;"/>
                            <rect x="27430.2" y="11195.3" width="188.745" height="677.545" style="fill:white;fill-rule:nonzero;stroke:white;stroke-width:2px;stroke-linejoin:round;stroke-miterlimit:2;"/>
                            <path d="M27849.3,11872.9L28037.1,11872.9L28037.1,11667.7L28119.3,11667.7L28255.8,11872.9L28472.6,11872.9L28311,11636.7C28395.2,11600.9 28450.4,11532.2 28450.4,11428.6L28450.4,11426.7C28450.4,11359.9 28430.1,11307.6 28390.4,11268.9C28344.9,11222.5 28273.2,11195.3 28169.7,11195.3L27849.3,11195.3L27849.3,11872.9ZM28037.1,11520.6L28037.1,11358L28160,11358C28222.9,11358 28261.6,11385.1 28261.6,11438.3L28261.6,11440.2C28261.6,11489.6 28224.9,11520.6 28161,11520.6L28037.1,11520.6Z" style="fill:white;fill-rule:nonzero;stroke:white;stroke-width:2px;stroke-linejoin:round;stroke-miterlimit:2;"/>
                            <path d="M28651.7,11872.9L29201.5,11872.9L29201.5,11713.2L28837.5,11713.2L28837.5,11605.7L29162.8,11605.7L29162.8,11457.7L28837.5,11457.7L28837.5,11355.1L29196.6,11355.1L29196.6,11195.3L28651.7,11195.3L28651.7,11872.9Z" style="fill:white;fill-rule:nonzero;stroke:white;stroke-width:2px;stroke-linejoin:round;stroke-miterlimit:2;"/>
                        </g>
                    </g>
                </g>
            </g>
        </g>
    </g>
</svg>
