<?xml version="1.0" encoding="UTF-8" standalone="no"?>
<!DOCTYPE svg PUBLIC "-//W3C//DTD SVG 1.1//EN" "http://www.w3.org/Graphics/SVG/1.1/DTD/svg11.dtd">
<svg width="100%" height="100%" viewBox="0 0 2832 899" version="1.1" xmlns="http://www.w3.org/2000/svg" xmlns:xlink="http://www.w3.org/1999/xlink" xml:space="preserve" xmlns:serif="http://www.serif.com/" style="fill-rule:evenodd;clip-rule:evenodd;stroke-linejoin:round;stroke-miterlimit:2;">
    <g transform="matrix(1,0,0,1,-16056,-1608.92)">
        <g id="FINAL---WIDE" serif:id="FINAL - WIDE" transform="matrix(3.15277,0,0,1,14901,1606.51)">
            <rect x="366.355" y="2.411" width="898.008" height="898.008" style="fill:none;"/>
            <g transform="matrix(0.746298,0,0,2.35291,372.729,-1295.89)">
                <g>
                    <g>
                        <g transform="matrix(0.490486,0,0,0.490486,-290.885,332.973)">
                            <text x="1239.39px" y="671.286px" style="font-family:'LostaMasta-Black', 'Losta Masta', serif;font-weight:900;font-size:93.582px;fill:white;">T<tspan x="1323.42px 1418.13px " y="671.286px 671.286px ">HE</tspan></text>
                        </g>
                        <g transform="matrix(0.490486,0,0,0.490486,-291.67,525.228)">
                            <text x="1239.39px" y="671.286px" style="font-family:'LostaMasta-Black', 'Losta Masta', serif;font-weight:900;font-size:93.582px;fill:white;">C<tspan x="1323.8px 1418.5px 1533.52px 1605.29px 1699.34px 1792.36px " y="671.286px 671.286px 671.286px 671.286px 671.286px 671.286px ">OMPANY</tspan></text>
                        </g>
                        <g transform="matrix(1.13453,0,0,1.13453,-1089.2,20.641)">
                            <text x="1239.39px" y="671.286px" style="font-family:'LostaMasta-Regular', 'Losta Masta', serif;font-size:101.111px;fill:white;">H<tspan x="1308.04px 1391.36px 1452.93px 1522.09px 1547.27px 1616.83px 1680.94px 1720.67px 1789.23px 1853.33px " y="671.286px 671.286px 671.286px 671.286px 671.286px 671.286px 671.286px 671.286px 671.286px 671.286px ">ORTICULTUR</tspan>E</text>
                        </g>
                    </g>
                </g>
            </g>
            <g transform="matrix(0.993481,0,0,0.993481,0.527381,-4.18052)">
                <g transform="matrix(-0.443369,0.492741,-0.170466,-1.52465,715.431,1041.37)">
                    <path d="M520.155,294.323C520.155,294.323 537.27,310.072 544.127,320.975C555.125,338.462 560.652,363.413 557.588,375.41C554.506,387.482 548.249,398.62 543.407,406.432C539.505,412.726 528.523,424.444 519.966,429.832C511.366,435.246 504.824,436.812 504.824,436.812C504.824,436.812 517.216,422.538 522.336,410.023C524.144,405.603 526.084,393.838 522.669,381.566C520.882,375.143 522.351,367.418 523.852,363.749C525.727,359.166 529.91,348.94 529.91,348.94C529.91,348.94 534.259,345.041 529.91,348.94C527.803,350.829 516.968,362.349 513.654,372.56C510.54,382.154 513.05,396.762 512.833,400.728C512.485,407.108 509.364,424.044 500.115,433.556C496.308,437.471 500.115,433.556 500.115,433.556C500.115,433.556 487.181,421.867 480.39,411.593C473.337,400.922 474.536,383.538 478.126,370.304C479.984,363.455 486.332,349.087 491.901,341.849C497.557,334.498 508.094,328.851 514.004,321.317C519.984,313.694 520.155,294.323 520.155,294.323Z" style="fill:rgb(0,85,1);"/>
                </g>
                <g transform="matrix(1.03401,-0.76122,0.241445,3.26,-297.061,52.8201)">
                    <circle cx="599.213" cy="301.4" r="12.012" style="fill:rgb(212,103,0);"/>
                </g>
                <g transform="matrix(0.455403,-0.33526,0.106338,1.43578,93.3517,570.959)">
                    <circle cx="599.213" cy="301.4" r="12.012" style="fill:rgb(105,51,0);"/>
                </g>
                <g transform="matrix(0.554314,0.814743,-0.186637,1.26217,328.983,-532.895)">
                    <path d="M535.708,294.003C535.708,294.003 544.296,312.936 547.339,325.209C550.499,337.957 550.874,359.974 549.136,372.191C547.544,383.381 542.84,393.95 537.998,401.762C534.096,408.056 527.567,415.189 523.123,418.41C520.012,420.664 515.629,423.841 515.629,423.841C515.629,423.841 520.021,414.814 522.956,408.783C526.233,402.049 528.388,389.085 532.384,372.212C533.495,367.521 538.081,350.733 538.081,350.733C538.081,350.733 528.097,374.054 523.84,383.999C521.428,389.632 519.883,406.81 509.619,424.713C506.518,430.123 509.619,424.713 509.619,424.713C509.619,424.713 502.72,420.212 498.718,415.914C490.262,406.832 489.548,393.906 490.585,388.446C493.601,372.551 504.765,361.615 510.334,354.378C515.99,347.027 530.937,331.036 533.033,317.808C534.695,307.314 535.708,294.003 535.708,294.003Z" style="fill:rgb(0,139,16);"/>
                </g>
                <g transform="matrix(0.110342,1.47309,-0.467235,0.347884,654.811,-207.111)">
                    <path d="M535.708,294.003C535.708,294.003 548.734,316.091 551.777,328.364C554.937,341.112 557.039,360.172 555.3,372.389C553.709,383.579 546.82,395.756 541.978,403.568C538.077,409.862 531.008,416.987 526.564,420.208C523.454,422.462 515.629,423.841 515.629,423.841C515.629,423.841 521.997,409.709 524.932,403.678C528.209,396.944 531.887,387.134 532.017,373.588C532.065,368.694 529.91,348.94 529.91,348.94C529.91,348.94 534.259,345.041 529.91,348.94C526.26,352.213 523.748,374.902 523.237,384.281C522.889,390.661 512.631,414.433 498.584,422.819C493.789,425.682 498.584,422.819 498.584,422.819C498.584,422.819 490.438,412.53 488.411,406.427C486.017,399.223 484.598,386.751 484.222,379.593C483.938,374.191 484.179,368.517 486.152,363.479C488.753,356.837 494.26,346.978 499.829,339.741C505.484,332.39 514.177,326.908 520.087,319.374C526.067,311.751 535.708,294.003 535.708,294.003Z" style="fill:rgb(0,85,1);"/>
                </g>
                <g transform="matrix(-0.363688,-1.12523,-0.399592,1.28378,917.071,866.66)">
                    <path d="M711.473,293.147C711.473,293.147 713.562,315.251 716.562,325.877C719.959,337.91 724.086,350.29 731.855,362.066C740.252,374.793 755.548,372.871 766.942,380.009C784.769,391.178 797.352,418.418 797.433,428.471C797.714,463.378 769.234,485.703 769.234,485.703C769.234,485.703 768.473,457.249 752.682,437.773C732.271,412.601 706.278,395.626 706.278,395.626C706.278,395.626 737.219,433.415 746.052,448.175C758.861,469.582 752.682,485.177 752.682,485.177C752.682,485.177 749.727,489.162 731.855,491.181C705.366,494.172 680.603,466.618 673.824,458.302C660.655,442.147 658.999,416.278 662.711,395.626C666.422,374.975 683.646,351.628 691.773,334.549C698.078,321.298 711.473,293.147 711.473,293.147Z" style="fill:rgb(121,219,21);"/>
                </g>
                <g transform="matrix(0.13379,0.727006,-0.270881,0.495508,471.774,-599.077)">
                    <path d="M639.471,308.906C639.471,308.906 689.115,334.455 705.523,341.53C737.384,355.269 752.703,367.119 766.942,380.009C781.388,393.088 797.352,418.418 797.433,428.471C797.714,463.378 765.691,497.498 765.691,497.498C765.691,497.498 765.076,479.677 757.235,457.454C750.039,437.061 742.021,433.011 720.792,418.74C702.199,406.241 701.57,388.504 701.57,388.504C701.57,388.504 703.118,404.782 710.794,419.06C721.588,439.135 732.609,442.862 743.728,459.913C758.399,482.411 749.5,494.743 749.5,494.743C749.5,494.743 692.174,475.567 673.389,450.553C661.05,434.122 659.724,419.603 663.435,398.951C667.146,378.3 674.707,363.842 665.416,347.662C657.956,334.669 639.471,308.906 639.471,308.906Z" style="fill:rgb(0,139,16);"/>
                </g>
                <g transform="matrix(0.652944,2.49319,-0.370203,0.963708,7.79804,-2115.74)">
                    <path d="M856.457,114.462C856.457,114.462 868.912,125.973 873.547,132.977C880.92,144.12 894.332,167.298 900.695,181.322C905.854,192.692 909.296,204.871 911.723,217.119C914.283,230.043 916.637,244.931 916.058,258.862C915.48,272.793 911.712,287.351 908.252,300.707C904.873,313.751 898.534,325.918 895.3,338.999C891.865,352.897 887.64,384.09 887.64,384.09C887.64,384.09 888,371.537 888.555,364.225C890.49,338.688 884.516,322.974 883.799,306.28C883.276,294.107 886.838,262.473 888.848,251.643C893.366,227.303 887.375,210.343 886.262,206.309C884.769,200.895 882.28,195.672 882.28,195.672C882.28,195.672 883.094,200.966 884.028,207.048C885.037,213.613 885.425,223.972 884.048,241.007C883.174,251.814 881.171,273.122 877.414,295.019C871.779,327.858 884.9,344.031 886.019,387.944C886.117,391.757 886.019,387.944 886.019,387.944C886.019,387.944 877.113,383.632 873.618,380.248C869.067,375.84 862.532,368.51 858.715,361.498C853.394,351.723 844.652,335.755 841.697,321.603C838.648,307.004 839.31,288.781 840.421,273.905C841.472,259.839 845.908,246.231 848.367,232.342C851.12,216.797 855.286,196.42 856.938,180.631C858.432,166.362 858.365,148.639 858.284,137.611C858.228,129.871 856.457,114.462 856.457,114.462Z" style="fill:rgb(0,85,1);"/>
                </g>
                <g transform="matrix(0.48,-0.12946,0.0409203,1.5081,7.09063,-27.5079)">
                    <path d="M818.056,140.288C818.056,140.288 835.719,157.344 842.01,167.729C848.417,178.304 859.597,206.04 858.858,231.633C858.49,244.354 853.854,265.879 849.777,277.988C845.067,291.979 838.864,313.333 837.09,327.916C833.913,354.038 842.278,386.311 844.419,400.998C846.062,412.266 837.354,428.292 837.354,428.292C837.354,428.292 832.16,412.986 830.462,407.865C824.452,389.738 814.054,382.3 806.707,368.85C795.648,348.605 792.963,323.846 796.725,304.491C798.324,296.262 804.986,279.701 806.991,270.085C809.125,259.848 806.991,270.085 806.991,270.085C806.991,270.085 794.329,285.442 787.484,297.752C768.884,331.204 778.017,353.931 789.454,372.154C802.357,392.711 815.004,404.614 821.001,414.17C829.236,427.291 828.238,433.947 828.238,433.947C828.238,433.947 811.689,437.795 804.945,433.947C795.914,428.793 783.411,414.19 774.052,403.023C763.581,390.53 755.047,375.21 748.024,359.495C741.049,343.889 737.813,324.987 737.813,309.241C737.813,294.114 741.265,278.556 748.024,265.023C755.047,250.959 769.682,238.535 779.953,224.86C790.423,210.92 797.611,194.886 804.945,180.875C811.539,168.279 818.056,140.288 818.056,140.288Z" style="fill:rgb(0,139,16);"/>
                </g>
                <g transform="matrix(0.377518,0,0,1.19023,202.79,-246.282)">
                    <circle cx="599.213" cy="301.4" r="12.012" style="fill:rgb(212,103,0);"/>
                </g>
                <g transform="matrix(0.749026,0,0,2.36151,40.5195,-564.484)">
                    <circle cx="599.213" cy="301.4" r="12.012" style="fill:rgb(105,51,0);"/>
                </g>
                <g transform="matrix(0.731281,0,0,2.30556,67.0925,53.4345)">
                    <circle cx="599.213" cy="301.4" r="12.012" style="fill:rgb(105,51,0);"/>
                </g>
                <g transform="matrix(0.527339,0,0,1.66258,238.484,21.9537)">
                    <circle cx="599.213" cy="301.4" r="12.012" style="fill:rgb(105,51,0);"/>
                </g>
                <g transform="matrix(0.439913,0,0,1.38695,237.241,47.7687)">
                    <circle cx="599.213" cy="301.4" r="12.012" style="fill:rgb(212,103,0);"/>
                </g>
                <g transform="matrix(0.586975,0,0,1.8506,76.8556,24.6114)">
                    <circle cx="599.213" cy="301.4" r="12.012" style="fill:rgb(105,51,0);"/>
                </g>
                <g transform="matrix(0.318558,0,0,1.00434,250.294,566.36)">
                    <circle cx="599.213" cy="301.4" r="12.012" style="fill:rgb(212,103,0);"/>
                </g>
                <g transform="matrix(-0.564388,1.04219,-0.11521,-0.620169,995.907,69.9855)">
                    <path d="M856.457,114.462C856.457,114.462 868.912,125.973 873.547,132.977C880.92,144.12 894.332,167.298 900.695,181.322C905.854,192.692 909.296,204.871 911.723,217.119C914.283,230.043 916.637,244.931 916.058,258.862C915.48,272.793 911.712,287.351 908.252,300.707C904.873,313.751 898.534,325.918 895.3,338.999C891.865,352.897 887.64,384.09 887.64,384.09C887.64,384.09 888,371.537 888.555,364.225C890.49,338.688 884.516,322.974 883.799,306.28C883.276,294.107 886.838,262.473 888.848,251.643C893.366,227.303 882.641,190.521 881.528,186.486C880.035,181.073 877.546,175.849 877.546,175.849C877.546,175.849 878.36,181.144 879.295,187.225C880.304,193.791 885.425,223.972 884.048,241.007C883.174,251.814 876.066,284.059 872.309,305.956C866.674,338.795 884.9,344.031 886.019,387.944C886.117,391.757 886.019,387.944 886.019,387.944C886.019,387.944 877.113,383.632 873.618,380.248C869.067,375.84 862.532,368.51 858.715,361.498C853.394,351.723 844.652,335.755 841.697,321.603C838.648,307.004 839.31,288.781 840.421,273.905C841.472,259.839 845.908,246.231 848.367,232.342C851.12,216.797 855.286,196.42 856.938,180.631C858.432,166.362 858.365,148.639 858.284,137.611C858.228,129.871 856.457,114.462 856.457,114.462Z" style="fill:rgb(0,139,16);"/>
                </g>
            </g>
        </g>
    </g>
</svg>
